<svg width="50" height="50" viewBox="0 0 50 50" fill="none" xmlns="http://www.w3.org/2000/svg">
<path d="M35.9682 26.3641C34.861 27.4712 29.4706 32.8619 28.269 34.0635C27.5063 34.8263 26.2694 34.8261 25.5068 34.0635C24.744 33.3007 24.744 32.064 25.5068 31.3013L29.8551 26.9531H15.3645C14.2858 26.9531 13.4114 26.0787 13.4114 25C13.4114 23.9213 14.2858 23.0469 15.3645 23.0469H29.8551L25.5069 18.6988C24.7441 17.936 24.7441 16.6993 25.5069 15.9366C26.2697 15.1739 27.5064 15.1738 28.2691 15.9366C29.331 16.9985 34.9277 22.5954 35.9665 23.6343C36.7126 24.3981 36.7056 25.6091 35.9682 26.3641ZM50 14.4895V35.5105C50 42.1883 45.4716 45.5795 45.1779 45.9956C42.5959 48.5779 39.1625 50 35.5105 50H14.4895C10.8375 50 7.4041 48.5778 4.82197 45.9955C4.53174 45.5842 0 42.189 0 35.5105V14.4895C0 7.81172 4.52842 4.42051 4.82207 4.00439C7.4041 1.42217 10.8375 0 14.4895 0H35.5105C39.1625 0 42.5959 1.42217 45.178 4.00449C45.4683 4.41582 50 7.81103 50 14.4895ZM46.0938 14.4895C46.0938 9.59599 42.7128 7.17959 42.4158 6.7666C42.4158 6.7665 42.4158 6.7665 42.4158 6.7665C40.5714 4.92197 38.119 3.90625 35.5105 3.90625H14.4895C11.881 3.90625 9.42861 4.92197 7.58418 6.7665C7.27646 7.19443 3.90625 9.57002 3.90625 14.4895V35.5105C3.90625 40.404 7.28721 42.8204 7.58418 43.2334C9.42861 45.078 11.881 46.0938 14.4895 46.0938H35.5105C38.119 46.0938 40.5714 45.078 42.4158 43.2335C42.7235 42.8056 46.0938 40.43 46.0938 35.5105V14.4895Z" fill="#5AC37E"/>
</svg>
