<svg width="50" height="50" viewBox="0 0 50 50" fill="none" xmlns="http://www.w3.org/2000/svg">
<path d="M14.0318 23.6359C15.139 22.5288 20.5294 17.1381 21.731 15.9365C22.4938 15.1737 23.7306 15.1739 24.4932 15.9365C25.256 16.6993 25.256 17.936 24.4932 18.6987L20.1449 23.0469L34.6355 23.0469C35.7142 23.0469 36.5886 23.9213 36.5886 25C36.5886 26.0787 35.7142 26.9531 34.6355 26.9531L20.1449 26.9531L24.4931 31.3012C25.2559 32.064 25.2559 33.3007 24.4931 34.0634C23.7303 34.8261 22.4936 34.8262 21.7309 34.0634C20.669 33.0015 15.0723 27.4046 14.0335 26.3657C13.2874 25.6019 13.2944 24.3909 14.0318 23.6359ZM1.26671e-06 35.5105L3.10443e-06 14.4894C3.68822e-06 7.81172 4.52842 4.42051 4.82208 4.00439C7.40411 1.42207 10.8375 -3.42369e-06 14.4895 -3.10443e-06L35.5106 -1.26671e-06C39.1625 -9.47444e-07 42.5959 1.42217 45.178 4.00449C45.4683 4.41582 50 7.81104 50 14.4895L50 35.5105C50 42.1883 45.4716 45.5795 45.1779 45.9956C42.5959 48.5778 39.1625 50 35.5105 50L14.4895 50C10.8375 50 7.4041 48.5778 4.82198 45.9955C4.53174 45.5842 6.82862e-07 42.189 1.26671e-06 35.5105ZM3.90625 35.5105C3.90625 40.404 7.28721 42.8204 7.58418 43.2334C7.58418 43.2335 7.58418 43.2335 7.58418 43.2335C9.42861 45.078 11.881 46.0937 14.4895 46.0937L35.5105 46.0937C38.119 46.0937 40.5714 45.078 42.4158 43.2335C42.7235 42.8056 46.0938 40.43 46.0938 35.5105L46.0938 14.4895C46.0938 9.596 42.7128 7.17959 42.4158 6.7666C40.5714 4.92197 38.119 3.90625 35.5106 3.90625L14.4895 3.90625C11.881 3.90625 9.42862 4.92197 7.58418 6.7665C7.27647 7.19443 3.90625 9.57001 3.90625 14.4894L3.90625 35.5105Z" fill="#5AC37E"/>
</svg>
